<mxfile host="app.diagrams.net" agent="Mozilla/5.0 (Windows NT 10.0; Win64; x64) AppleWebKit/537.36 (KHTML, like Gecko) Chrome/138.0.0.0 Safari/537.36 Edg/138.0.0.0" version="27.1.4">
  <diagram name="ページ1" id="1pXBT3VmqBtAlYFouk9t">
    <mxGraphModel dx="1418" dy="866" grid="1" gridSize="10" guides="1" tooltips="1" connect="1" arrows="1" fold="1" page="1" pageScale="1" pageWidth="1654" pageHeight="1169" math="0" shadow="0">
      <root>
        <mxCell id="0" />
        <mxCell id="1" parent="0" />
        <mxCell id="Bmf2voQrzI6uCEc3ep-r-7" style="edgeStyle=orthogonalEdgeStyle;rounded=0;orthogonalLoop=1;jettySize=auto;html=1;entryX=0;entryY=0.5;entryDx=0;entryDy=0;" edge="1" parent="1" source="Bmf2voQrzI6uCEc3ep-r-1" target="Bmf2voQrzI6uCEc3ep-r-6">
          <mxGeometry relative="1" as="geometry" />
        </mxCell>
        <mxCell id="Bmf2voQrzI6uCEc3ep-r-1" value="&lt;font style=&quot;font-size: 16px;&quot;&gt;Data&lt;/font&gt;" style="shape=cylinder3;whiteSpace=wrap;html=1;boundedLbl=1;backgroundOutline=1;size=15;" vertex="1" parent="1">
          <mxGeometry x="70" y="230" width="120" height="90" as="geometry" />
        </mxCell>
        <mxCell id="Bmf2voQrzI6uCEc3ep-r-9" style="edgeStyle=orthogonalEdgeStyle;rounded=0;orthogonalLoop=1;jettySize=auto;html=1;" edge="1" parent="1" source="Bmf2voQrzI6uCEc3ep-r-6" target="Bmf2voQrzI6uCEc3ep-r-8">
          <mxGeometry relative="1" as="geometry" />
        </mxCell>
        <mxCell id="Bmf2voQrzI6uCEc3ep-r-6" value="&lt;font style=&quot;font-size: 16px;&quot;&gt;EDA&lt;/font&gt;" style="rounded=0;whiteSpace=wrap;html=1;" vertex="1" parent="1">
          <mxGeometry x="270" y="245" width="120" height="60" as="geometry" />
        </mxCell>
        <mxCell id="Bmf2voQrzI6uCEc3ep-r-11" value="" style="edgeStyle=orthogonalEdgeStyle;rounded=0;orthogonalLoop=1;jettySize=auto;html=1;" edge="1" parent="1" source="Bmf2voQrzI6uCEc3ep-r-8" target="Bmf2voQrzI6uCEc3ep-r-10">
          <mxGeometry relative="1" as="geometry" />
        </mxCell>
        <mxCell id="Bmf2voQrzI6uCEc3ep-r-8" value="&lt;font style=&quot;font-size: 16px;&quot;&gt;Preprocessing&lt;/font&gt;" style="rounded=0;whiteSpace=wrap;html=1;" vertex="1" parent="1">
          <mxGeometry x="450" y="245" width="120" height="60" as="geometry" />
        </mxCell>
        <mxCell id="Bmf2voQrzI6uCEc3ep-r-13" value="" style="edgeStyle=orthogonalEdgeStyle;rounded=0;orthogonalLoop=1;jettySize=auto;html=1;" edge="1" parent="1" source="Bmf2voQrzI6uCEc3ep-r-10" target="Bmf2voQrzI6uCEc3ep-r-12">
          <mxGeometry relative="1" as="geometry" />
        </mxCell>
        <mxCell id="Bmf2voQrzI6uCEc3ep-r-10" value="&lt;font style=&quot;font-size: 14px;&quot;&gt;Train/Test/Valid Split&lt;/font&gt;" style="whiteSpace=wrap;html=1;rounded=0;" vertex="1" parent="1">
          <mxGeometry x="450" y="385" width="120" height="60" as="geometry" />
        </mxCell>
        <mxCell id="Bmf2voQrzI6uCEc3ep-r-15" value="" style="edgeStyle=orthogonalEdgeStyle;rounded=0;orthogonalLoop=1;jettySize=auto;html=1;" edge="1" parent="1" source="Bmf2voQrzI6uCEc3ep-r-12" target="Bmf2voQrzI6uCEc3ep-r-14">
          <mxGeometry relative="1" as="geometry" />
        </mxCell>
        <mxCell id="Bmf2voQrzI6uCEc3ep-r-12" value="&lt;font style=&quot;font-size: 14px;&quot;&gt;Hyperparameter Tuning&lt;/font&gt;" style="whiteSpace=wrap;html=1;rounded=0;" vertex="1" parent="1">
          <mxGeometry x="650" y="385" width="120" height="60" as="geometry" />
        </mxCell>
        <mxCell id="Bmf2voQrzI6uCEc3ep-r-17" value="" style="edgeStyle=orthogonalEdgeStyle;rounded=0;orthogonalLoop=1;jettySize=auto;html=1;" edge="1" parent="1" source="Bmf2voQrzI6uCEc3ep-r-14" target="Bmf2voQrzI6uCEc3ep-r-16">
          <mxGeometry relative="1" as="geometry" />
        </mxCell>
        <mxCell id="Bmf2voQrzI6uCEc3ep-r-14" value="&lt;font style=&quot;font-size: 14px;&quot;&gt;Final Training&lt;/font&gt;" style="whiteSpace=wrap;html=1;rounded=0;" vertex="1" parent="1">
          <mxGeometry x="650" y="245" width="120" height="60" as="geometry" />
        </mxCell>
        <mxCell id="Bmf2voQrzI6uCEc3ep-r-24" value="" style="edgeStyle=orthogonalEdgeStyle;rounded=0;orthogonalLoop=1;jettySize=auto;html=1;" edge="1" parent="1" source="Bmf2voQrzI6uCEc3ep-r-16" target="Bmf2voQrzI6uCEc3ep-r-23">
          <mxGeometry relative="1" as="geometry" />
        </mxCell>
        <mxCell id="Bmf2voQrzI6uCEc3ep-r-16" value="&lt;font style=&quot;font-size: 14px;&quot;&gt;Evaluations&lt;/font&gt;" style="whiteSpace=wrap;html=1;rounded=0;" vertex="1" parent="1">
          <mxGeometry x="850" y="245" width="120" height="60" as="geometry" />
        </mxCell>
        <mxCell id="Bmf2voQrzI6uCEc3ep-r-18" value="Loan, Payment, Clarity Underwriting" style="text;html=1;align=center;verticalAlign=middle;resizable=0;points=[];autosize=1;strokeColor=none;fillColor=none;fontStyle=2" vertex="1" parent="1">
          <mxGeometry x="20" y="330" width="220" height="30" as="geometry" />
        </mxCell>
        <mxCell id="Bmf2voQrzI6uCEc3ep-r-19" value="Visualization" style="text;html=1;align=center;verticalAlign=middle;resizable=0;points=[];autosize=1;strokeColor=none;fillColor=none;fontStyle=2" vertex="1" parent="1">
          <mxGeometry x="285" y="330" width="90" height="30" as="geometry" />
        </mxCell>
        <mxCell id="Bmf2voQrzI6uCEc3ep-r-20" value="Feature Engineering, Imputation" style="text;html=1;align=center;verticalAlign=middle;resizable=0;points=[];autosize=1;strokeColor=none;fillColor=none;fontStyle=2" vertex="1" parent="1">
          <mxGeometry x="410" y="200" width="190" height="30" as="geometry" />
        </mxCell>
        <mxCell id="Bmf2voQrzI6uCEc3ep-r-21" value="Time Based Splitting" style="text;html=1;align=center;verticalAlign=middle;resizable=0;points=[];autosize=1;strokeColor=none;fillColor=none;fontStyle=2" vertex="1" parent="1">
          <mxGeometry x="445" y="460" width="130" height="30" as="geometry" />
        </mxCell>
        <mxCell id="Bmf2voQrzI6uCEc3ep-r-22" value="Search for Best Parameters using&amp;nbsp;&lt;div&gt;Stratified K-Fold&lt;/div&gt;" style="text;html=1;align=center;verticalAlign=middle;resizable=0;points=[];autosize=1;strokeColor=none;fillColor=none;fontStyle=2" vertex="1" parent="1">
          <mxGeometry x="600" y="455" width="210" height="40" as="geometry" />
        </mxCell>
        <mxCell id="Bmf2voQrzI6uCEc3ep-r-23" value="&lt;font style=&quot;font-size: 14px;&quot;&gt;Saving Artifacts&lt;/font&gt;" style="whiteSpace=wrap;html=1;rounded=0;" vertex="1" parent="1">
          <mxGeometry x="850" y="385" width="120" height="60" as="geometry" />
        </mxCell>
        <mxCell id="Bmf2voQrzI6uCEc3ep-r-25" value="Train with the Best Parameters" style="text;html=1;align=center;verticalAlign=middle;resizable=0;points=[];autosize=1;strokeColor=none;fillColor=none;fontStyle=2" vertex="1" parent="1">
          <mxGeometry x="620" y="200" width="190" height="30" as="geometry" />
        </mxCell>
        <mxCell id="Bmf2voQrzI6uCEc3ep-r-26" value="Verify Model Performance" style="text;html=1;align=center;verticalAlign=middle;resizable=0;points=[];autosize=1;strokeColor=none;fillColor=none;fontStyle=2" vertex="1" parent="1">
          <mxGeometry x="835" y="200" width="160" height="30" as="geometry" />
        </mxCell>
        <mxCell id="Bmf2voQrzI6uCEc3ep-r-27" value="Save model weights" style="text;html=1;align=center;verticalAlign=middle;resizable=0;points=[];autosize=1;strokeColor=none;fillColor=none;fontStyle=2" vertex="1" parent="1">
          <mxGeometry x="845" y="460" width="130" height="30" as="geometry" />
        </mxCell>
      </root>
    </mxGraphModel>
  </diagram>
</mxfile>
